<svg version="1" xmlns="http://www.w3.org/2000/svg" width="400" height="400" viewBox="0 0 300.000000 300.000000"><path d="M159.5 21.8c-2.8 1-6.6 2.8-8.4 4.1-4.7 3.4-44.1 10.9-51.6 10-7.8-1.1-18.1.7-24.4 4.2-4 2.1-9.4 3.8-18.6 5.5-14.3 2.8-19.3 5.2-22.1 10.5-1.5 2.9-1.4 7.5 1.5 65.3 1.8 34.1 3.4 63.4 3.6 65.1.8 5 45 86.6 48.9 90.2 3.6 3.4 8.9 5.3 14.5 5.3 5.5 0 146.1-33.9 150.2-36.2 7-3.9 6.7-2.3 11-64.1 2.1-30.9 3.9-59.1 3.9-62.6v-6.4l-27.6-42.1c-15.2-23.2-29.2-43.5-31.1-45.2-4.6-4.3-9.1-5.1-28.3-5.2-13.2-.1-17.5.2-21.5 1.6zm27.2 8.2c17.4 7.7 8.9 23.3-12.7 23.4-4.9.1-9.1-.6-12.2-1.7-5.4-2.1-10.8-7.7-10.8-11.2 0-2.6 4-7.9 7.4-9.7 7.3-4 20.3-4.3 28.3-.8zm17.1.7c1.9 1.7 55.7 82.9 56.8 85.8.3.7-.5 2.5-1.8 4-2.3 2.6-5.2 3.3-77.4 17.7-80.8 16.1-83.3 16.4-87.9 11.7-1.3-1.3-13.7-21.5-27.5-44.7-19.4-32.6-25-42.9-24.6-44.7.7-2.9 5.2-5 14.9-6.7l7.7-1.5v11.4c0 12.7.8 15.1 6.4 20 4.1 3.7 13.2 7.3 18.3 7.3 3.2 0 3.5.2 2.7 2.2-.4 1.3-.9 7.8-1.1 14.5-.4 10.8-.2 12.6 1.7 16.2 4.3 8.6 15.1 13.5 29.5 13.5 10.6 0 15.5-1.2 22.2-5.7 7.5-5 9.3-9.5 9.3-23.5 0-9.4-.3-12-2-15.3-3.5-6.8-12.1-11.5-24.3-13.4-3.2-.5-3.7-.9-3.1-2.3.5-.9 1-6.7 1.2-12.9.3-11.8-.5-15-5-20l-2-2.1 5.4-1.1c2.9-.6 8.5-1.7 12.5-2.4l7.1-1.4.4 11.3c.3 10.6.5 11.5 3.3 15.6 3.8 5.2 11.8 9.6 19.8 10.7 3.1.4 5.9 1 6.2 1.3.3.3-.2 2.2-1.1 4.4-2.5 6-1.7 24.6 1.4 29.5 8.9 14.4 38.9 17.4 53.1 5.3 6.1-5.3 7.1-8.3 7.1-21.6 0-9.3-.3-11.9-2.1-15.5-3.6-7.4-14.7-13.3-25.1-13.3-4.8 0-5-.1-4.3-2.3.5-1.2 1-7.5 1.2-14 .4-10.2.2-12.3-1.5-15.7-2.1-4.4-1-5.4 2.6-2.3zm-96.3 15.2c9 4.1 11.6 11.3 6 17.1C102.8 74.2 72 69.6 72 56.8c0-3.8 1.3-6.2 4.9-8.7 7.2-5.1 21.7-6.2 30.6-2.2zm108.6 29.2c8.8 3.8 11.9 10.3 8.1 16.5-4.7 7.4-22.7 10.8-34.4 6.4-6.2-2.3-11.8-7.6-11.8-11.3 0-5.8 7.1-11.8 16.3-13.7 6-1.3 16.2-.3 21.8 2.1zm-79.2 15.6c7.1 3.5 10.1 8.5 8 13.5-5.1 12.4-33.9 14.5-44.4 3.2-6.2-6.7-.3-16.2 12.2-19.4 6.8-1.7 17.9-.5 24.2 2.7zm70.8 74.9c5.8 4.3 5.8 4.9 3.6 36.7-1.2 15.8-2.3 29-2.5 29.3-.3.2-12.8 1.3-28 2.4-29.5 2.1-32.7 1.9-36.7-2.4-3.2-3.4-3.8-7.4-3.1-21.6.4-10.3.9-13.3 2.8-17.2 2.8-5.6 14.6-18.6 21-23 8.6-5.9 12.3-6.8 26.9-6.5 11.6.2 13.5.5 16 2.3z"/><path d="M187.7 178.3c-1.5 4.6-2.7 8.6-2.7 8.9 0 .6 21.7-.1 23.8-.8 1.1-.3-9.1-9.4-17.4-15.5-.6-.5-2 2.1-3.7 7.4zM174.3 198.1c-5.1 4.9-9.3 9.2-9.3 9.4 0 .7 25.3 8.6 25.8 8.1.5-.6-6.1-26.6-6.8-26.6-.3 0-4.7 4.1-9.7 9.1zM154.2 210c-4 .9-7.5 2-7.8 2.2-.2.3 1.2 4.3 3.2 8.9 2 4.6 4 9.5 4.5 10.8.5 1.3 1.2 2.2 1.4 1.9.6-.6 7.5-23.3 7.5-24.7 0-1.3.4-1.3-8.8.9z"/></svg>